<svg width="32" height="103" viewBox="0 0 32 103" fill="none" xmlns="http://www.w3.org/2000/svg">
<rect width="32" height="103" rx="4" fill="#082675"/>
<path d="M21.308 14.5726L21.308 13.1956C20.101 12.6176 19.54 11.5296 19.54 9.93161L18.044 9.93161C18.044 11.3086 18.384 12.2436 19.2 13.0256L10.19 13.0256L10.19 9.77861L8.881 9.77861L8.881 17.7006L10.19 17.7006L10.19 14.5726L21.308 14.5726ZM8.796 23.9614C8.796 26.6644 10.207 28.3134 12.502 28.3134C14.117 28.3134 15.069 27.5144 15.613 26.3074C16.072 27.2594 17.024 27.9054 18.265 27.9054C19.829 27.9054 21.512 26.8854 21.512 23.9614C21.512 21.0374 19.829 20.0004 18.265 20.0004C17.024 20.0004 16.072 20.6464 15.613 21.5984C15.069 20.3914 14.117 19.5924 12.502 19.5924C10.207 19.5924 8.796 21.2414 8.796 23.9614ZM16.106 23.9614C16.106 22.2954 17.075 21.5814 18.248 21.5814C19.506 21.5814 20.271 22.3974 20.271 23.9614C20.271 25.5084 19.506 26.3244 18.248 26.3244C17.075 26.3244 16.106 25.6104 16.106 23.9614ZM10.037 23.9614C10.037 22.0744 11.04 21.2074 12.536 21.2074C14.1 21.2074 15.035 22.1764 15.035 23.9614C15.035 25.7294 14.1 26.6984 12.536 26.6984C11.04 26.6984 10.037 25.8314 10.037 23.9614ZM9 35.904L11.091 35.904L11.091 33.949L9 33.949L9 35.904ZM21.512 45.6596C21.512 42.7356 18.928 41.2226 15.154 41.2226C11.38 41.2226 8.796 42.7356 8.796 45.6596C8.796 48.5666 11.38 50.0796 15.154 50.0796C18.928 50.0796 21.512 48.5666 21.512 45.6596ZM20.22 45.6596C20.22 46.2206 20.05 46.6966 19.744 47.0706L11.754 43.3646C12.621 42.9906 13.794 42.8206 15.154 42.8206C18.146 42.8206 20.22 43.6706 20.22 45.6596ZM10.088 45.6596C10.088 45.0986 10.258 44.6226 10.564 44.2316L18.554 47.9376C17.687 48.3116 16.514 48.4816 15.154 48.4816C12.162 48.4816 10.088 47.6486 10.088 45.6596ZM8.796 56.7013C8.796 59.7783 10.462 60.9343 12.383 60.9343C13.624 60.9343 15.001 60.4413 15.579 58.5883C16.174 60.1863 17.347 60.5943 18.35 60.5943C19.455 60.5943 21.512 60.0673 21.512 56.7523C21.512 53.5563 19.574 52.7063 18.095 52.5873L18.095 54.2023C19.659 54.4063 20.203 55.3583 20.203 56.7183C20.203 58.5203 19.234 58.9963 18.333 58.9963C17.415 58.9963 16.157 58.5373 16.157 55.9533L16.157 55.5623L14.814 55.5623L14.814 56.0723C14.814 57.8403 14.389 59.3193 12.468 59.3193C10.853 59.3193 10.122 58.2313 10.122 56.6843C10.122 54.9673 11.006 54.2873 12.366 53.9303L12.366 52.3323C10.53 52.5363 8.796 53.5563 8.796 56.7013ZM9 68.2605L11.091 68.2605L11.091 66.3055L9 66.3055L9 68.2605ZM14.967 80.8095C16.174 81.9825 17.075 82.3905 18.112 82.3905C20.288 82.3905 21.512 80.7755 21.512 78.5485C21.512 76.1515 20.101 74.3835 17.602 74.2475L17.602 75.8455C18.809 75.9645 20.186 76.4575 20.186 78.4805C20.186 80.4015 18.945 80.7925 18.129 80.7925C17.126 80.7925 16.344 80.1465 15.749 79.5855L10.292 74.3155L9 74.3155L9 82.6625L10.36 82.6625L10.36 76.3895L14.967 80.8095ZM8.796 89.5558C8.796 92.6328 10.462 93.7888 12.383 93.7888C13.624 93.7888 15.001 93.2958 15.579 91.4428C16.174 93.0408 17.347 93.4488 18.35 93.4488C19.455 93.4488 21.512 92.9218 21.512 89.6068C21.512 86.4108 19.574 85.5608 18.095 85.4418L18.095 87.0568C19.659 87.2608 20.203 88.2128 20.203 89.5728C20.203 91.3748 19.234 91.8508 18.333 91.8508C17.415 91.8508 16.157 91.3918 16.157 88.8078L16.157 88.4168L14.814 88.4168L14.814 88.9268C14.814 90.6948 14.389 92.1738 12.468 92.1738C10.853 92.1738 10.122 91.0858 10.122 89.5388C10.122 87.8218 11.006 87.1418 12.366 86.7848L12.366 85.1868C10.53 85.3908 8.796 86.4108 8.796 89.5558Z" fill="#FFF9F5"/>
</svg>
