<svg width="32" height="102" viewBox="0 0 32 102" fill="none" xmlns="http://www.w3.org/2000/svg">
<rect width="32" height="102" rx="4" fill="#082675"/>
<path d="M14.967 15.9619C16.174 17.1349 17.075 17.5429 18.112 17.5429C20.288 17.5429 21.512 15.9279 21.512 13.7009C21.512 11.3039 20.101 9.53587 17.602 9.39987L17.602 10.9979C18.809 11.1169 20.186 11.6099 20.186 13.6329C20.186 15.5539 18.945 15.9449 18.129 15.9449C17.126 15.9449 16.344 15.2989 15.749 14.7379L10.292 9.46787L9 9.46787L9 17.8149L10.36 17.8149L10.36 11.5419L14.967 15.9619ZM19.948 20.5407L19.948 26.9837C17.347 23.8727 13.505 22.5807 9 22.5637L9 24.2297C13.828 24.2637 17.262 25.3687 20.033 28.9217L21.308 28.9217L21.308 20.5407L19.948 20.5407ZM9 34.7898L11.091 34.7898L11.091 32.8348L9 32.8348L9 34.7898ZM21.512 44.5454C21.512 41.6214 18.928 40.1084 15.154 40.1084C11.38 40.1084 8.796 41.6214 8.796 44.5454C8.796 47.4524 11.38 48.9654 15.154 48.9654C18.928 48.9654 21.512 47.4524 21.512 44.5454ZM20.22 44.5454C20.22 45.1064 20.05 45.5824 19.744 45.9564L11.754 42.2504C12.621 41.8764 13.794 41.7064 15.154 41.7064C18.146 41.7064 20.22 42.5564 20.22 44.5454ZM10.088 44.5454C10.088 43.9844 10.258 43.5084 10.564 43.1174L18.554 46.8234C17.687 47.1974 16.514 47.3674 15.154 47.3674C12.162 47.3674 10.088 46.5344 10.088 44.5454ZM8.796 55.587C8.796 58.664 10.462 59.82 12.383 59.82C13.624 59.82 15.001 59.327 15.579 57.474C16.174 59.072 17.347 59.48 18.35 59.48C19.455 59.48 21.512 58.953 21.512 55.638C21.512 52.442 19.574 51.592 18.095 51.473L18.095 53.088C19.659 53.292 20.203 54.244 20.203 55.604C20.203 57.406 19.234 57.882 18.333 57.882C17.415 57.882 16.157 57.423 16.157 54.839L16.157 54.448L14.814 54.448L14.814 54.958C14.814 56.726 14.389 58.205 12.468 58.205C10.853 58.205 10.122 57.117 10.122 55.57C10.122 53.853 11.006 53.173 12.366 52.816L12.366 51.218C10.53 51.422 8.796 52.442 8.796 55.587ZM9 67.1462L11.091 67.1462L11.091 65.1912L9 65.1912L9 67.1462ZM14.967 79.6953C16.174 80.8683 17.075 81.2763 18.112 81.2763C20.288 81.2763 21.512 79.6613 21.512 77.4343C21.512 75.0373 20.101 73.2693 17.602 73.1333L17.602 74.7313C18.809 74.8503 20.186 75.3433 20.186 77.3663C20.186 79.2873 18.945 79.6783 18.129 79.6783C17.126 79.6783 16.344 79.0323 15.749 78.4713L10.292 73.2013L9 73.2013L9 81.5483L10.36 81.5483L10.36 75.2753L14.967 79.6953ZM8.796 88.4415C8.796 91.5185 10.462 92.6745 12.383 92.6745C13.624 92.6745 15.001 92.1815 15.579 90.3285C16.174 91.9265 17.347 92.3345 18.35 92.3345C19.455 92.3345 21.512 91.8075 21.512 88.4925C21.512 85.2965 19.574 84.4465 18.095 84.3275L18.095 85.9425C19.659 86.1465 20.203 87.0985 20.203 88.4585C20.203 90.2605 19.234 90.7365 18.333 90.7365C17.415 90.7365 16.157 90.2775 16.157 87.6935L16.157 87.3025L14.814 87.3025L14.814 87.8125C14.814 89.5805 14.389 91.0595 12.468 91.0595C10.853 91.0595 10.122 89.9715 10.122 88.4245C10.122 86.7075 11.006 86.0275 12.366 85.6705L12.366 84.0725C10.53 84.2765 8.796 85.2965 8.796 88.4415Z" fill="#FFF9F5"/>
</svg>
