<svg width="80" height="20" viewBox="0 0 80 20" fill="none" xmlns="http://www.w3.org/2000/svg">
<path d="M12.011 13.7543C12.011 17.6331 9.40433 19.4704 6.20992 19.4704C2.81108 19.4704 0.511105 17.7096 0.511105 13.4226V12.6315H4.13995V13.2184C4.13995 14.9792 4.72772 16.2551 6.20992 16.2806C7.74324 16.3061 8.38212 15.2089 8.38212 14.2136C8.38212 12.7591 7.0788 12.0956 5.8777 11.5342L4.72772 10.9984C4.67952 10.9758 4.63092 10.9531 4.58198 10.9303L4.58095 10.9298L4.57872 10.9288C2.57825 9.99544 0 8.79253 0 5.28227C0 1.73524 2.58108 0 5.8777 0C9.27655 0 11.5765 1.53109 11.5765 5.99678V6.8644H7.94768V6.25196C7.94768 4.00636 6.95102 3.18978 5.67326 3.18978C4.49772 3.18978 3.83329 4.00636 3.83329 5.15468C3.83329 6.64183 5.09286 7.22061 6.11894 7.69209C6.16686 7.71411 6.21428 7.7359 6.26103 7.75754L7.3088 8.24238C7.40771 8.28811 7.5166 8.33672 7.63353 8.38892C9.14796 9.06499 12.011 10.3431 12.011 13.7543Z" fill="#FFF9F5"/>
<path d="M23.2944 19.1131H13.5067V0.408291H23.2944V3.47048H17.2378V7.85961H22.4255V10.9218H17.2378V16.4405H23.2944V19.1131Z" fill="#FFF9F5"/>
<path d="M76.2689 19.1131H80V0.408281H76.2689V11.7639H76.1923L71.4901 0.408281H67.759V19.1131H71.4901V9.23759H71.5668L76.2689 19.1131Z" fill="#FFF9F5"/>
<path d="M47.4177 19.4704C50.6121 19.4704 53.2188 17.6331 53.2188 13.7543C53.2188 10.3431 50.3558 9.06499 48.8414 8.38893C48.7244 8.33672 48.6155 8.28811 48.5166 8.24238L47.4069 7.72893L47.3267 7.69209C46.3007 7.22061 45.0411 6.64183 45.0411 5.15468C45.0411 4.00636 45.7055 3.18978 46.8811 3.18978C48.1588 3.18978 49.1555 4.00636 49.1555 6.25196V6.8644H52.7843V5.99678C52.7843 1.53109 50.4844 0 47.0855 0C43.7889 0 41.2078 1.73524 41.2078 5.28227C41.2078 8.79253 43.7861 9.99544 45.7865 10.9288L47.0855 11.5342C48.2866 12.0956 49.5899 12.7591 49.5899 14.2136C49.5899 15.2089 48.9511 16.3061 47.4177 16.2806C45.9355 16.2551 45.3478 14.9792 45.3478 13.2184V12.6315H41.7189V13.4226C41.7189 17.7096 44.0189 19.4704 47.4177 19.4704Z" fill="#FFF9F5"/>
<path fill-rule="evenodd" clip-rule="evenodd" d="M27.9024 19.0033C27.9024 19.0033 27.9024 19.0028 26.0884 19.0028C24.2744 19.0028 24.2744 19.0024 24.2744 19.0019L24.2745 18.997L24.2745 18.9849C24.2745 18.9749 24.2746 18.9607 24.2747 18.9426C24.2749 18.9065 24.2753 18.8545 24.2762 18.7878C24.2779 18.6545 24.2812 18.4621 24.2879 18.219C24.3011 17.7332 24.3275 17.0433 24.38 16.217C24.4847 14.571 24.6951 12.3533 25.1217 10.1166C25.5427 7.90974 26.1998 5.54178 27.265 3.68057C28.3257 1.82712 30.034 0.0969222 32.6105 0.0969222C34.9902 0.0969222 36.4561 1.99022 37.2495 3.68501C37.6058 4.44614 37.8927 5.29347 38.1135 6.18358C38.6252 6.23679 39.0788 6.3193 39.4475 6.40172C39.7758 6.47512 40.0451 6.55031 40.2383 6.60933C40.3351 6.63891 40.4134 6.66461 40.4711 6.68425C40.5 6.69408 40.5237 6.70241 40.5422 6.70898C40.547 6.7107 40.5515 6.7123 40.5556 6.71378C40.5593 6.71512 40.5627 6.71635 40.5658 6.71748L40.5745 6.72068L40.5781 6.722L40.5797 6.7226C40.5804 6.72288 40.5812 6.72314 39.9479 8.4204C39.3146 10.1176 39.3152 10.1179 39.3159 10.1181L39.3192 10.1194L39.322 10.1204C39.3232 10.1208 39.3232 10.1208 39.322 10.1204C39.3196 10.1195 39.3123 10.117 39.3004 10.1129C39.2767 10.1048 39.2349 10.091 39.1768 10.0733C39.0606 10.0377 38.8819 9.98744 38.656 9.93691C38.6563 9.94366 38.6567 9.95042 38.657 9.95717C38.7675 12.1429 38.5461 14.4406 37.8738 16.2691C37.2361 18.0033 35.8894 20 33.4258 20C32.0703 20 30.9076 19.5072 30.0826 18.5763C29.3052 17.6993 28.9705 16.5962 28.863 15.5849C28.6516 13.5942 29.2465 11.3092 30.2581 9.69721C31.3984 7.88033 32.9337 6.93737 34.4372 6.48676C34.2988 6.02354 34.1398 5.59689 33.9629 5.21898C33.3272 3.86115 32.7785 3.71936 32.6105 3.71936C31.9259 3.71936 31.1885 4.126 30.4149 5.4778C29.6457 6.82184 29.0799 8.72755 28.6856 10.7944C28.297 12.8313 28.0998 14.8873 28.0006 16.4465C27.9513 17.2228 27.9267 17.8685 27.9144 18.3175C27.9083 18.5419 27.9053 18.7168 27.9038 18.8338C27.9031 18.8923 27.9027 18.9364 27.9025 18.9649L27.9024 18.9959L27.9024 19.0033ZM35.0326 10.1183C34.3905 10.4004 33.8027 10.8712 33.3323 11.6207C32.7206 12.5954 32.351 14.0753 32.4707 15.2029C32.5289 15.7507 32.6837 16.0451 32.7994 16.1757C32.8674 16.2524 33.0014 16.3776 33.4258 16.3776C33.5174 16.3776 33.9834 16.3391 34.4681 15.0207C34.9182 13.7967 35.129 12.0242 35.0337 10.1398C35.0334 10.1326 35.033 10.1254 35.0326 10.1183Z" fill="#FFF9F5"/>
<path d="M60.5516 19.6247C63.6123 19.6247 66.3415 17.6869 66.3415 13.531V6.26445C66.3415 2.31247 64.0204 0.145263 60.5516 0.145263C57.0317 0.145263 54.6341 2.31247 54.6341 6.26445V13.531C54.6341 17.432 57.0317 19.6247 60.5516 19.6247ZM58.358 13.0975V6.67239C58.358 4.88763 58.7916 3.33234 60.475 3.33234C62.1329 3.33234 62.6176 4.88763 62.6176 6.67239V13.0975C62.6176 14.8568 62.184 16.4376 60.5516 16.4376C58.8682 16.4376 58.358 15.0608 58.358 13.0975Z" fill="#FFF9F5"/>
</svg>
