<svg width="200" height="200" viewBox="0 0 200 200" fill="none" xmlns="http://www.w3.org/2000/svg">
<circle cx="100" cy="100" r="99.25" fill="#F0E6DF" stroke="#630331" stroke-width="1.5"/>
<path d="M101.225 23.3774L101.363 20.8371L107.881 21.1896L107.972 19.512L101.453 19.1595L101.592 16.5873L109.549 17.0175L109.645 15.2441L99.5634 14.699L99.0045 25.0359L109.102 25.5819L109.198 23.8085L101.225 23.3774Z" fill="#630331"/>
<path d="M80.9569 27.5597L80.1021 23.3415L87.5508 21.8321L88.4056 26.0504L90.4912 25.6277L88.4352 15.4819L86.3496 15.9046L87.198 20.0915L79.7494 21.6009L78.901 17.414L76.8154 17.8366L78.8713 27.9824L80.9569 27.5597Z" fill="#630331"/>
<path d="M73.9959 18.7845L63.8232 22.7327L64.4658 24.3883L68.5677 22.7963L71.6706 30.7913L73.6544 30.0213L70.5515 22.0264L74.6385 20.4402L73.9959 18.7845Z" fill="#630331"/>
<path d="M58.2255 25.8207L60.1038 24.8205L64.9695 33.9577L63.0912 34.9579L58.2255 25.8207Z" fill="#630331"/>
<path d="M40.2226 38.6545L50.0097 44.1732L52.0731 42.5781L49.5963 34.2479L57.0226 38.7519L59.086 37.1569L56.1725 26.3246L54.3496 27.7337L56.7789 36.3478L49.1849 31.7263L47.2481 33.2235L49.8079 41.7367L42.0834 37.216L40.2226 38.6545Z" fill="#630331"/>
<path d="M28.207 53.9168L34.7222 45.1633L36.1469 46.2237L33.5294 49.7405L40.4089 54.861L39.1383 56.568L32.2588 51.4475L29.6317 54.9772L28.207 53.9168Z" fill="#630331"/>
<path d="M34.5894 60.2161C34.2944 59.5105 33.7996 58.9236 33.1051 58.4555L32.1332 60.3305C32.4433 60.6595 32.6643 61.0444 32.7962 61.4852C32.933 61.9166 32.9594 62.3988 32.8753 62.9319C32.7961 63.4555 32.5945 64.0299 32.2706 64.6549C31.868 65.4314 31.3962 66.0519 30.8551 66.5163C30.3046 66.9758 29.7138 67.2463 29.0829 67.3278C28.452 67.4092 27.7956 67.2732 27.1137 66.9198C26.4224 66.5615 25.9282 66.101 25.6311 65.5385C25.3245 64.9711 25.2049 64.3325 25.2725 63.6226C25.3307 62.9078 25.561 62.1622 25.9635 61.3856C26.2875 60.7606 26.643 60.2601 27.0302 59.8841C27.4173 59.508 27.8313 59.2541 28.2722 59.1221C28.7084 58.9758 29.1573 58.9442 29.6189 59.0273L30.5908 57.1522C29.8034 56.8402 29.0364 56.767 28.2898 56.9326C27.5336 57.0933 26.8172 57.4789 26.1404 58.0892C25.4685 58.6901 24.865 59.5066 24.3299 60.5389C23.8832 61.4006 23.5775 62.2454 23.4128 63.0731C23.2435 63.8864 23.2275 64.6591 23.3647 65.391C23.4974 66.1085 23.7884 66.764 24.2377 67.3574C24.6871 67.9507 25.3095 68.4536 26.105 68.8659C26.9005 69.2782 27.6701 69.497 28.414 69.5221C29.1484 69.5424 29.847 69.3999 30.5098 69.0947C31.1776 68.78 31.7949 68.3191 32.362 67.7119C32.9339 67.0953 33.4432 66.3561 33.8899 65.4943C34.425 64.462 34.7491 63.5007 34.8623 62.6102C34.9754 61.7197 34.8845 60.9217 34.5894 60.2161Z" fill="#630331"/>
<path d="M23.5442 79.3313L25.9698 80.0983L28.377 72.4859L30.0704 73.0213L27.0216 82.6628L17.1513 79.5416L20.1953 69.9154L21.8886 70.4509L19.4863 78.0481L21.9424 78.8248L23.9106 72.6006L25.5124 73.1071L23.5442 79.3313Z" fill="#630331"/>
<path d="M23.5143 86.4483L16.001 85.4584L16.2789 83.3486L26.5423 84.7009L26.2643 86.8106L17.804 93.4585L25.259 94.4407L24.981 96.5505L14.7177 95.1982L14.9957 93.0885L23.5143 86.4483Z" fill="#630331"/>
<path d="M14.7432 101.661L22.3088 101.223L15.1884 109.344L15.3115 111.469L25.6461 110.87L25.523 108.745L18.0162 109.18L25.0779 101.062L24.9548 98.9378L14.6201 99.5366L14.7432 101.661Z" fill="#630331"/>
<path d="M179.478 103.297L176.942 103.101L176.326 111.062L174.556 110.925L175.335 100.843L185.656 101.641L184.878 111.707L183.107 111.57L183.721 103.625L181.153 103.427L180.65 109.935L178.975 109.806L179.478 103.297Z" fill="#630331"/>
<path d="M182.372 123.374L181.751 125.89L177.858 120.441L171.689 123.458L172.336 120.832L176.718 118.898L173.758 115.069L174.379 112.553L178.422 118.094L184.391 115.187L183.771 117.704L179.559 119.641L182.372 123.374Z" fill="#630331"/>
<path fill-rule="evenodd" clip-rule="evenodd" d="M173.457 128.141L170.367 126.821L171.203 124.864L180.723 128.932L178.201 134.832C177.975 135.362 177.699 135.83 177.375 136.236C177.046 136.653 176.676 136.976 176.264 137.206C175.849 137.446 175.393 137.576 174.897 137.596C174.401 137.616 173.864 137.503 173.285 137.255C172.717 137.012 172.273 136.707 171.955 136.339C171.636 135.971 171.425 135.555 171.321 135.093C171.223 134.645 171.215 134.161 171.299 133.64C171.388 133.132 171.545 132.614 171.772 132.084L173.457 128.141ZM175.016 128.808L173.256 132.927C173.034 133.447 172.995 133.918 173.14 134.339C173.294 134.765 173.621 135.085 174.122 135.299C174.642 135.521 175.104 135.538 175.508 135.352C175.913 135.165 176.226 134.812 176.449 134.292L178.209 130.172L175.016 128.808Z" fill="#630331"/>
<path d="M168.745 140.189L166.599 138.823L162.313 145.559L160.814 144.606L166.243 136.074L174.977 141.632L169.557 150.15L168.058 149.196L172.336 142.474L170.162 141.091L166.658 146.598L165.241 145.697L168.745 140.189Z" fill="#630331"/>
<path fill-rule="evenodd" clip-rule="evenodd" d="M167.222 153.266L159.514 146.356L158.093 147.941L160.94 150.493L158.26 153.483C157.811 153.984 157.438 154.337 157.139 154.542C156.833 154.755 156.551 154.838 156.292 154.792C156.04 154.753 155.768 154.601 155.474 154.338L153.746 152.789L152.326 154.374L154.16 156.019C154.589 156.403 154.993 156.6 155.371 156.61C155.75 156.634 156.139 156.504 156.539 156.217C156.766 156.062 157.009 155.865 157.266 155.626C157.16 155.795 157.063 155.965 156.977 156.137C156.801 156.509 156.692 156.877 156.652 157.242C156.604 157.615 156.651 157.979 156.791 158.334C156.931 158.689 157.184 159.03 157.549 159.357C158.089 159.842 158.64 160.114 159.203 160.174C159.773 160.241 160.337 160.123 160.894 159.821C161.453 159.533 161.999 159.092 162.533 158.496L167.222 153.266ZM158.911 155.249L162.179 151.604L164.443 153.633L161.175 157.279C160.776 157.723 160.382 157.979 159.993 158.046C159.597 158.12 159.224 158.001 158.874 157.688C158.509 157.36 158.326 156.981 158.325 156.55C158.317 156.128 158.513 155.694 158.911 155.249Z" fill="#630331"/>
<path d="M157.6 163.367L155.995 164.764L149.197 156.956L150.802 155.559L157.6 163.367Z" fill="#630331"/>
<path d="M145.472 162.266L146.892 164.376L141.476 168.021L142.414 169.415L147.83 165.77L149.268 167.907L142.658 172.356L143.649 173.829L152.025 168.193L146.246 159.604L137.857 165.25L138.848 166.723L145.472 162.266Z" fill="#630331"/>
<path d="M131.347 179.773L128.265 172.85L138.378 176.643L140.322 175.778L136.112 166.321L134.168 167.186L137.226 174.056L127.137 170.316L125.193 171.181L129.403 180.638L131.347 179.773Z" fill="#630331"/>
<path d="M112.601 176.009C112.26 176.694 112.139 177.452 112.239 178.284L114.293 177.793C114.339 177.344 114.486 176.925 114.734 176.537C114.971 176.151 115.318 175.816 115.777 175.531C116.225 175.249 116.791 175.026 117.476 174.863C118.327 174.66 119.105 174.611 119.81 174.717C120.517 174.833 121.108 175.103 121.582 175.528C122.056 175.952 122.383 176.537 122.561 177.284C122.742 178.042 122.716 178.717 122.485 179.309C122.256 179.912 121.851 180.42 121.269 180.833C120.69 181.256 119.975 181.57 119.125 181.773C118.44 181.936 117.829 181.994 117.291 181.947C116.753 181.9 116.291 181.752 115.903 181.505C115.507 181.271 115.189 180.952 114.95 180.548L112.896 181.038C113.175 181.838 113.621 182.466 114.234 182.923C114.85 183.39 115.61 183.68 116.515 183.794C117.408 183.909 118.421 183.832 119.552 183.562C120.496 183.337 121.335 183.016 122.069 182.6C122.795 182.196 123.39 181.703 123.855 181.121C124.311 180.551 124.617 179.903 124.772 179.175C124.927 178.447 124.901 177.647 124.693 176.776C124.485 175.904 124.147 175.179 123.68 174.599C123.215 174.03 122.651 173.595 121.987 173.293C121.312 172.993 120.56 172.827 119.729 172.795C118.889 172.765 117.997 172.863 117.052 173.088C115.922 173.358 114.982 173.741 114.234 174.238C113.486 174.734 112.942 175.325 112.601 176.009Z" fill="#630331"/>
<path d="M108.423 179.16L108.256 176.622L100.289 177.145L100.173 175.373L110.263 174.71L110.941 185.04L100.867 185.702L100.751 183.93L108.702 183.407L108.533 180.837L102.019 181.265L101.909 179.588L108.423 179.16Z" fill="#630331"/>
<path d="M80.7467 181.714L80.454 183.465L90.4121 185.129L92.1177 174.918L90.0187 174.568L89.3386 178.639L82.8998 177.564L82.6257 179.205L89.0644 180.281L88.6058 183.026L80.7467 181.714Z" fill="#630331"/>
<path fill-rule="evenodd" clip-rule="evenodd" d="M75.3686 170.798C76.6675 171.252 77.7097 171.842 78.4951 172.569C79.267 173.302 79.7676 174.133 79.9969 175.06C80.2161 175.985 80.1408 176.975 79.7711 178.032C79.3979 179.1 78.8376 179.926 78.0902 180.513C77.3327 181.095 76.4254 181.428 75.3683 181.51C74.2976 181.599 73.1129 181.416 71.814 180.962C70.5051 180.504 69.4647 179.909 68.6928 179.175C67.9174 178.452 67.4201 177.629 67.2009 176.704C66.9716 175.777 67.0436 174.779 67.4168 173.712C67.7865 172.655 68.3501 171.835 69.1076 171.252C69.855 170.666 70.759 170.327 71.8196 170.234C72.8767 170.152 74.0597 170.34 75.3686 170.798ZM74.7612 172.534C73.9557 172.253 73.2087 172.127 72.52 172.157C71.8213 172.184 71.2146 172.385 70.6997 172.758C70.1747 173.128 69.7802 173.691 69.5161 174.446C69.252 175.201 69.2099 175.887 69.3898 176.504C69.5596 177.117 69.9093 177.652 70.439 178.108C70.9551 178.571 71.6159 178.943 72.4214 179.225C73.2168 179.503 73.9707 179.626 74.683 179.592C75.3918 179.569 76.0086 179.372 76.5336 179.002C77.0585 178.632 77.453 178.069 77.7171 177.314C77.9812 176.559 78.0233 175.873 77.8434 175.256C77.6636 174.64 77.3038 174.102 76.764 173.642C76.2243 173.182 75.5567 172.813 74.7612 172.534Z" fill="#630331"/>
<path fill-rule="evenodd" clip-rule="evenodd" d="M65.4009 167.271C64.7666 166.409 63.8546 165.632 62.6647 164.941C61.4657 164.245 60.3393 163.837 59.2857 163.719C58.2267 163.609 57.2749 163.772 56.4303 164.207C55.5766 164.636 54.8684 165.335 54.3059 166.303C53.738 167.281 53.4791 168.247 53.5292 169.201C53.5702 170.15 53.9031 171.053 54.5282 171.909C55.1479 172.775 56.0572 173.556 57.2563 174.253C58.4462 174.944 59.5752 175.347 60.6434 175.461C61.6971 175.58 62.6508 175.425 63.5046 174.995C64.3491 174.561 65.0553 173.855 65.6232 172.877C66.1858 171.908 66.4466 170.95 66.4057 170.001C66.3555 169.046 66.0206 168.136 65.4009 167.271ZM59.6107 165.739C60.2927 165.839 61.0027 166.104 61.7406 166.532C62.4692 166.956 63.0552 167.444 63.4985 167.998C63.9418 168.551 64.1936 169.148 64.2539 169.787C64.3142 170.427 64.1434 171.092 63.7416 171.784C63.3398 172.476 62.8462 172.954 62.2609 173.218C61.6755 173.483 61.0326 173.56 60.3322 173.449C59.6264 173.347 58.9092 173.085 58.1805 172.661C57.4426 172.233 56.8639 171.743 56.4444 171.191C56.0104 170.642 55.7678 170.051 55.7167 169.417C55.6564 168.778 55.8272 168.112 56.229 167.42C56.6308 166.728 57.1244 166.25 57.7097 165.986C58.2859 165.716 58.9195 165.634 59.6107 165.739Z" fill="#630331"/>
<path fill-rule="evenodd" clip-rule="evenodd" d="M44.5974 165.005C43.7122 164.251 43.0631 163.516 42.6501 162.8C42.2371 162.084 42.0116 161.395 41.9736 160.732C41.9206 160.071 42.0215 159.442 42.2765 158.847C42.5233 158.244 42.868 157.683 43.3106 157.163C43.7532 156.644 44.2638 156.217 44.8424 155.883C45.4128 155.542 46.0399 155.34 46.7234 155.278C47.392 155.217 48.116 155.329 48.8956 155.615C49.6601 155.902 50.4646 156.405 51.3092 157.124L55.8163 160.962L49.1044 168.843L44.5974 165.005ZM53.0135 160.971L50.1631 158.544C49.5784 158.046 49.0364 157.703 48.5372 157.516C48.0229 157.33 47.5483 157.263 47.1135 157.313C46.6786 157.363 46.281 157.5 45.9208 157.726C45.5605 157.952 45.2386 158.231 44.9551 158.564C44.6715 158.897 44.4505 159.255 44.2921 159.638C44.1337 160.022 44.0679 160.428 44.0947 160.857C44.1215 161.286 44.2711 161.736 44.5433 162.206C44.8074 162.669 45.2318 163.15 45.8165 163.648L48.6669 166.075L53.0135 160.971Z" fill="#630331"/>
<path d="M34.4511 148.098L36.9785 151.443L40.3229 148.915L37.7955 145.571L34.4511 148.098Z" fill="#630331"/>
<path d="M25.8232 126.974C26.6204 126.717 27.3876 126.691 28.1246 126.895C28.8617 127.099 29.5452 127.521 30.1753 128.161C30.8053 128.8 31.3607 129.649 31.8414 130.708C32.2428 131.591 32.509 132.449 32.6403 133.279C32.7671 134.1 32.7478 134.871 32.5824 135.59C32.4127 136.3 32.0929 136.937 31.623 137.502C31.1434 138.071 30.4958 138.541 29.6799 138.911C28.8641 139.282 28.0841 139.46 27.3399 139.447C26.5957 139.433 25.9006 139.257 25.2545 138.918C24.5944 138.573 23.9969 138.083 23.4622 137.447C22.9133 136.806 22.4382 136.043 22.0369 135.16C21.5562 134.101 21.2873 133.122 21.2303 132.222C21.1688 131.313 21.3086 130.512 21.6496 129.818C21.981 129.128 22.5126 128.571 23.2446 128.145L24.1178 130.068C23.7672 130.379 23.5146 130.752 23.36 131.185C23.1912 131.613 23.1349 132.095 23.1912 132.632C23.2475 133.169 23.4212 133.758 23.7123 134.399C24.0739 135.195 24.5177 135.837 25.0437 136.325C25.5599 136.817 26.1358 137.117 26.7714 137.227C27.3972 137.341 28.0646 137.237 28.7736 136.915C29.4729 136.598 29.9855 136.166 30.3115 135.62C30.6374 135.073 30.79 134.442 30.769 133.725C30.7384 133.012 30.5423 132.258 30.1806 131.462C29.8896 130.821 29.5627 130.307 29.2 129.921C28.8329 129.526 28.4376 129.248 28.0139 129.089C27.5858 128.92 27.1466 128.856 26.6964 128.897L25.8232 126.974Z" fill="#630331"/>
<path fill-rule="evenodd" clip-rule="evenodd" d="M27.8609 122.112C28.0361 121.056 27.9564 119.861 27.6218 118.527C27.2846 117.182 26.791 116.09 26.1411 115.252C25.4808 114.417 24.7005 113.849 23.8 113.547C22.8969 113.234 21.9022 113.214 20.8158 113.486C19.7191 113.761 18.8463 114.25 18.1974 114.951C17.5459 115.642 17.1313 116.511 16.9535 117.556C16.7653 118.604 16.8399 119.8 17.1771 121.145C17.5117 122.48 18.0104 123.57 18.6733 124.416C19.3232 125.253 20.0997 125.828 21.0028 126.141C21.9033 126.443 22.9019 126.457 23.9986 126.182C25.085 125.909 25.9539 125.427 26.6054 124.736C27.2543 124.035 27.6728 123.16 27.8609 122.112ZM24.9198 116.895C25.3238 117.453 25.6295 118.146 25.837 118.974C26.042 119.791 26.1007 120.552 26.0132 121.256C25.9257 121.959 25.6739 122.556 25.2577 123.045C24.8415 123.534 24.2454 123.876 23.4695 124.071C22.6935 124.265 22.0066 124.245 21.4088 124.01C20.8111 123.775 20.3076 123.368 19.8985 122.789C19.479 122.212 19.1668 121.515 18.9618 120.698C18.7543 119.87 18.7021 119.113 18.8051 118.428C18.8952 117.734 19.1496 117.148 19.5684 116.669C19.9846 116.18 20.5806 115.838 21.3566 115.644C22.1326 115.449 22.8195 115.469 23.4173 115.704C24.0124 115.929 24.5133 116.326 24.9198 116.895Z" fill="#630331"/>
<path d="M114.58 26.5744L112.32 15.484L114.618 15.9863L116.28 25.0144L121.543 17.4998L123.809 17.9952L117.175 27.1416L114.58 26.5744Z" fill="#630331"/>
<path d="M125.362 27.5889L126.3 25.2242L132.368 27.6317L132.988 26.0701L126.92 23.6626L127.87 21.2682L135.276 24.2067L135.931 22.5559L126.547 18.8326L122.729 28.4549L132.128 32.1841L132.783 30.5333L125.362 27.5889Z" fill="#630331"/>
<path fill-rule="evenodd" clip-rule="evenodd" d="M134.059 33.0695L139.39 24.1956L145.411 27.8125C146.097 28.2245 146.633 28.6775 147.021 29.1716C147.423 29.6621 147.645 30.1936 147.687 30.7662C147.734 31.3297 147.571 31.9223 147.197 32.5441C146.945 32.9647 146.657 33.2774 146.335 33.4821C146.013 33.6868 145.665 33.8009 145.29 33.8245C144.924 33.8536 144.541 33.8168 144.143 33.7142C143.958 33.6616 143.772 33.599 143.586 33.5263C143.869 33.7342 144.109 33.9349 144.304 34.1286C144.661 34.4672 144.863 34.8249 144.91 35.2018C144.972 35.575 144.855 36.0085 144.558 36.5023L143.289 38.6145L141.465 37.5187L142.66 35.5299C142.863 35.1916 142.96 34.8953 142.951 34.641C142.948 34.3776 142.813 34.1159 142.546 33.856C142.288 33.6016 141.871 33.3014 141.295 32.9553L137.852 30.8873L135.883 34.1653L134.059 33.0695ZM138.709 29.4609L142.906 31.9821C143.418 32.2897 143.881 32.3997 144.294 32.3121C144.717 32.23 145.055 31.9786 145.307 31.558C145.549 31.1557 145.596 30.767 145.448 30.3919C145.309 30.0223 144.984 29.6837 144.471 29.3761L140.275 26.8549L138.709 29.4609Z" fill="#630331"/>
<path d="M151.145 40.8257L159.182 38.317L157.295 36.7331L151.592 38.6668L152.466 32.6809L150.578 31.097L149.503 39.4475L147.405 41.9479L149.047 43.326L151.145 40.8257Z" fill="#630331"/>
<path fill-rule="evenodd" clip-rule="evenodd" d="M157.001 51.6013C156.109 50.5537 155.507 49.5181 155.195 48.4943C154.899 47.4717 154.886 46.5022 155.156 45.5856C155.433 44.6771 155.998 43.8597 156.851 43.1336C157.712 42.4005 158.613 41.9695 159.554 41.8406C160.502 41.7199 161.453 41.8907 162.407 42.353C163.376 42.8166 164.307 43.5722 165.199 44.6198C166.098 45.6755 166.696 46.7146 166.992 47.7372C167.297 48.7528 167.31 49.7149 167.033 50.6234C166.763 51.54 166.197 52.3648 165.337 53.0979C164.484 53.8241 163.584 54.2475 162.636 54.3683C161.695 54.4972 160.743 54.3339 159.781 53.8784C158.827 53.4161 157.9 52.657 157.001 51.6013ZM158.402 50.4083C158.955 51.058 159.537 51.5435 160.146 51.8647C160.763 52.1941 161.388 52.3275 162.021 52.2647C162.661 52.21 163.286 51.9234 163.895 51.4047C164.504 50.886 164.886 50.3151 165.042 49.692C165.205 49.077 165.173 48.4388 164.946 47.7775C164.734 47.1173 164.351 46.4624 163.798 45.8128C163.252 45.1712 162.663 44.6851 162.031 44.3545C161.407 44.017 160.775 43.8756 160.135 43.9302C159.495 43.9849 158.871 44.2715 158.262 44.7902C157.653 45.3089 157.27 45.8798 157.114 46.5029C156.958 47.126 156.997 47.7723 157.231 48.4418C157.465 49.1113 157.855 49.7668 158.402 50.4083Z" fill="#630331"/>
<path d="M169.466 64.7188L176.047 60.9609L177.103 62.8088L168.113 67.9422L167.058 66.0942L169.771 55.6824L163.241 59.4111L162.186 57.5632L171.176 52.4298L172.231 54.2777L169.466 64.7188Z" fill="#630331"/>
<path d="M173.766 70.4268L171.371 71.2846L174.064 78.801L172.392 79.3999L168.982 69.8801L178.727 66.3894L182.132 75.8941L180.46 76.493L177.773 68.9917L175.348 69.8603L177.549 76.006L175.968 76.5725L173.766 70.4268Z" fill="#630331"/>
<path d="M180.901 90.6847L180.353 86.5286L176.197 87.0762L176.745 91.2323L180.901 90.6847Z" fill="#630331"/>
</svg>
